<?xml version="1.0" encoding="iso-8859-1"?>
<!-- Generator: Adobe Illustrator 19.0.0, SVG Export Plug-In . SVG Version: 6.00 Build 0)  -->
<svg version="1.1" id="Capa_1" xmlns="http://www.w3.org/2000/svg" xmlns:xlink="http://www.w3.org/1999/xlink" x="0px" y="0px"
	 viewBox="0 0 512 512" style="enable-background:new 0 0 512 512;" xml:space="preserve">
<path style="fill:#FE9923;" d="M420.212,168.486l-21.914-58.198C394.613,100.534,401.818,90,412.331,90h67.207
	c8.291,0,15,6.709,15,15c0,34.395-23.276,64.292-56.616,72.744C430.52,179.595,422.908,175.657,420.212,168.486z"/>
<path style="fill:#FD003A;" d="M344.538,0c-21.899,0-41.7,12.001-52.2,30.601c-13.801-1.8-27.301,1.199-38.401,7.8
	C236.539,48.9,224.538,67.8,224.538,90c0,21.899,11.7,41.1,29.399,51.599c9.001,5.402,19.501,8.401,30.601,8.401
	c13.801,0,29.399-3.3,30-17.1c1.5-32.699,36.301-51.899,63.3-39c7.2,3.6,15.901,0.601,19.801-6.301
	C402.138,79.2,404.538,69.9,404.538,60C404.538,27.001,377.537,0,344.538,0z"/>
<path style="fill:#E50027;" d="M404.538,60c0,9.901-2.401,19.2-6.899,27.599c-3.9,6.901-12.601,9.901-19.801,6.301
	c-26.999-12.9-61.8,6.301-63.3,39c-0.601,13.801-16.199,17.1-30,17.1c-11.1,0-21.599-2.999-30.601-8.401V38.401
	c11.1-6.601,24.6-9.6,38.401-7.8C302.838,12.001,322.639,0,344.538,0C377.537,0,404.538,27.001,404.538,60z"/>
<path style="fill:#FEDB41;" d="M481.338,248.899L426.437,99.6C418.339,80.7,390.139,60,359.538,60c-40.201,0-73.2,31.5-75,72.299
	v81.2l30,13.5c0,2.1-0.601,4.2-1.5,6.301c-1.5,3.6-4.501,6.299-8.101,7.5c-1.8,0.899-33.6,31.199-35.4,31.199h-93.9l-29.399-30
	h-8.101c-5.7,0-11.1-2.999-13.5-8.101l-11.4-23.099C104.538,193.4,86.238,182,66.738,182c-28.799,0-52.2,23.401-52.2,52.2V257
	c0,123.6,68.401,255,195,255h89.099C453.138,512,534.138,391.099,481.338,248.899z"/>
<path style="fill:#FCBF29;" d="M298.637,512h-44.7V272h15.601c1.8,0,33.6-30.3,35.4-31.199c3.6-1.201,6.601-3.9,8.101-7.5
	c0.899-2.1,1.5-4.2,1.5-6.301l-30-13.5v-81.2c1.8-40.8,34.799-72.299,75-72.299c30.601,0,58.801,20.7,66.899,39.6L481.339,248.9
	C534.138,391.099,453.138,512,298.637,512z"/>
<path style="fill:#FEA832;" d="M374.538,317c0,69.6-52.8,126.899-120.601,134.399c-4.799,0.3-9.6,0.601-14.399,0.601h-30
	c-32.1,0-53.699-32.401-41.7-61.5c-26.1-7.2-40.199-35.4-30-60c-50.7-14.401-40.199-88.5,11.7-88.5h120c1.8,0,3.6-0.3,5.4-1.199
	c3.6-1.201,6.601-3.9,8.101-7.5c0.899-2.1,1.5-4.2,1.5-6.301v-14.7c26.4-0.601,52.2,11.999,69.3,32.401h0.3
	C374.238,269.299,374.538,289.401,374.538,317z"/>
<path style="fill:#713708;" d="M374.538,135c0,8.401-6.599,15-15,15s-15-6.599-15-15s6.599-15,15-15S374.538,126.599,374.538,135z"
	/>
<path style="fill:#FE9923;" d="M374.538,317c0,69.6-52.8,126.899-120.601,134.399V242h15.601c1.8,0,3.6-0.3,5.4-1.199
	c3.6-1.201,6.601-3.9,8.101-7.5c0.899-2.1,1.5-4.2,1.5-6.301v-14.7c26.4-0.601,52.2,11.999,69.3,32.401h0.3
	C374.238,269.299,374.538,289.401,374.538,317z"/>
<g>
</g>
<g>
</g>
<g>
</g>
<g>
</g>
<g>
</g>
<g>
</g>
<g>
</g>
<g>
</g>
<g>
</g>
<g>
</g>
<g>
</g>
<g>
</g>
<g>
</g>
<g>
</g>
<g>
</g>
</svg>
