<?xml version="1.0"?>
<svg xmlns="http://www.w3.org/2000/svg" xmlns:xlink="http://www.w3.org/1999/xlink" version="1.1" id="Capa_1" x="0px" y="0px" width="512px" height="512px" viewBox="0 0 512 512" style="enable-background:new 0 0 512 512;" xml:space="preserve" class=""><g><g>
	<path d="M288,284.75V480l-64,32V284.75c10.344,2.125,21.047,3.25,32,3.25S277.656,286.875,288,284.75z M384,128   c0,70.719-57.281,128-128,128c-70.672,0-128-57.281-128-128S185.328,0,256,0C326.719,0,384,57.281,384,128z M256,64   c0-17.688-14.328-32-32-32s-32,14.313-32,32s14.328,32,32,32S256,81.688,256,64z" data-original="#000000" fill="#000000"/>
</g></g> </svg>
